G04*
G04 #@! TF.GenerationSoftware,Altium Limited,Altium Designer,21.7.2 (23)*
G04*
G04 Layer_Color=2752767*
%FSLAX25Y25*%
%MOIN*%
G70*
G04*
G04 #@! TF.SameCoordinates,0BC4D904-7686-419A-8D3B-CA4FD0BABD65*
G04*
G04*
G04 #@! TF.FilePolarity,Positive*
G04*
G01*
G75*
%ADD13C,0.01000*%
%ADD26C,0.00200*%
%ADD27C,0.00267*%
D13*
X0Y7062D02*
X178Y6107D01*
X470Y5181D01*
X871Y4297D01*
X1376Y3467D01*
X1976Y2704D01*
X2664Y2018D01*
X3430Y1420D01*
X4262Y919D01*
X5148Y521D01*
X6075Y233D01*
X7030Y58D01*
X8000Y0D01*
X7062Y154000D02*
X6107Y153822D01*
X5181Y153530D01*
X4297Y153129D01*
X3467Y152624D01*
X2704Y152024D01*
X2018Y151336D01*
X1420Y150570D01*
X919Y149738D01*
X521Y148852D01*
X233Y147925D01*
X58Y146969D01*
X0Y146000D01*
X94465Y-68D02*
X95420Y110D01*
X96346Y402D01*
X97231Y803D01*
X98061Y1307D01*
X98824Y1908D01*
X99510Y2596D01*
X100107Y3362D01*
X100609Y4193D01*
X101006Y5079D01*
X101295Y6007D01*
X101469Y6962D01*
X101528Y7932D01*
X101500Y146938D02*
X101322Y147892D01*
X101030Y148819D01*
X100629Y149703D01*
X100124Y150533D01*
X99524Y151296D01*
X98836Y151982D01*
X98070Y152580D01*
X97238Y153081D01*
X96352Y153479D01*
X95425Y153767D01*
X94469Y153942D01*
X93500Y154000D01*
X-0Y146500D02*
X0Y7000D01*
X7062Y154000D02*
X93500Y154000D01*
X8000Y-0D02*
X94500Y0D01*
X101500Y147000D02*
X101500Y7869D01*
D26*
X34165Y27987D02*
Y29587D01*
X35765D01*
Y27987D01*
X34165D01*
X67235D02*
Y29587D01*
X68835D01*
Y27987D01*
X67235D01*
D27*
X68835Y57528D02*
X68283Y58288D01*
X67388Y57998D01*
Y57057D01*
X68283Y56767D01*
X68835Y57528D01*
X52300D02*
X51747Y58288D01*
X50853Y57998D01*
Y57057D01*
X51747Y56767D01*
X52300Y57528D01*
X35765D02*
X35212Y58288D01*
X34317Y57998D01*
Y57057D01*
X35212Y56767D01*
X35765Y57528D01*
Y79181D02*
X35212Y79942D01*
X34317Y79651D01*
Y78711D01*
X35212Y78420D01*
X35765Y79181D01*
X52300D02*
X51747Y79942D01*
X50853Y79651D01*
Y78711D01*
X51747Y78420D01*
X52300Y79181D01*
X68835D02*
X68283Y79942D01*
X67388Y79651D01*
Y78711D01*
X68283Y78420D01*
X68835Y79181D01*
M02*
